<svg xmlns="http://www.w3.org/2000/svg" version="1.1" xmlns:xlink="http://www.w3.org/1999/xlink" width="512" height="512" x="0" y="0" viewBox="0 0 64 64" style="enable-background:new 0 0 512 512" xml:space="preserve" class=""><g><g data-name="Froppy disk"><path fill="#ee1515" d="M49 3v17a2 2 0 0 1-2 2H17a2 2 0 0 1-2-2V3H7a4 4 0 0 0-4 4v50a4 4 0 0 0 4 4h2V35a4 4 0 0 1 4-4h38a4 4 0 0 1 4 4v26h2a4 4 0 0 0 4-4V11l-8-8z" opacity="1" data-original="#9bc9ff" class=""></path><path fill="#ee1515" d="M39 7h6v11h-6z" opacity="1" data-original="#9bc9ff" class=""></path><g fill="#1e81ce"><path d="m61.707 10.293-8-8A1 1 0 0 0 53 2H7a5.006 5.006 0 0 0-5 5v50a5.006 5.006 0 0 0 5 5h50a5.006 5.006 0 0 0 5-5V11a1 1 0 0 0-.293-.707zM48 4v16a1 1 0 0 1-1 1H17a1 1 0 0 1-1-1V4zM10 60V35a3 3 0 0 1 3-3h38a3 3 0 0 1 3 3v25zm50-3a3 3 0 0 1-3 3h-1V35a5.006 5.006 0 0 0-5-5H13a5.006 5.006 0 0 0-5 5v25H7a3 3 0 0 1-3-3V7a3 3 0 0 1 3-3h7v16a3 3 0 0 0 3 3h30a3 3 0 0 0 3-3V4h2.586L60 11.414z" fill="#ffffff" opacity="1" data-original="#1e81ce" class=""></path><path d="M39 19h6a1 1 0 0 0 1-1V7a1 1 0 0 0-1-1h-6a1 1 0 0 0-1 1v11a1 1 0 0 0 1 1zm1-11h4v9h-4zM47 45H17a1 1 0 0 0 0 2h30a1 1 0 0 0 0-2zM47 39H17a1 1 0 0 0 0 2h30a1 1 0 0 0 0-2zM47 51H17a1 1 0 0 0 0 2h30a1 1 0 0 0 0-2z" fill="#ffffff" opacity="1" data-original="#1e81ce" class=""></path></g></g></g></svg>