<svg id="Layer_1" enable-background="new 0 0 24 24" viewBox="0 0 24 24" xmlns="http://www.w3.org/2000/svg"><g><g><g><path d="m9.281 20.365c-.368-1.142-1.16-2.359-2.229-3.428-1.504-1.504-3.298-2.438-4.683-2.438-.576 0-1.048.168-1.364.485-.547.546-.645 1.477-.275 2.619.368 1.142 1.16 2.359 2.229 3.428 1.504 1.504 3.299 2.439 4.683 2.439.574 0 1.047-.168 1.364-.486.546-.546.644-1.476.275-2.619z" fill="#ff7bac"/></g></g><g><g><path d="m17.4 14.857c-.438.052-5.579.741-8 4.477-.453-.943-1.138-1.894-1.994-2.75-.893-.894-1.857-1.57-2.787-2.008 3.318-2.378 4.487-7.855 4.54-8.111.709-3.167 3.58-5.465 6.831-5.465 3.859 0 7 3.14 7 7 0 3.312-2.35 6.194-5.59 6.857z" fill="#ffd419"/></g></g><g><g><path d="m15.99 1c-.424 0-.841.043-1.248.118 3.263.593 5.748 3.45 5.748 6.882 0 3.312-2.35 6.194-5.59 6.857-.363.043-3.949.529-6.547 2.815.419.543.778 1.103 1.046 1.661 2.421-3.736 7.562-4.425 8-4.477 3.241-.662 5.591-3.544 5.591-6.856 0-3.86-3.141-7-7-7z" fill="#e6bf17"/></g></g><g><g><path d="m21.109 19.38c.594-1.188.689-2.535.27-3.794l-.414-1.244c-.046-.138-.149-.249-.283-.304-.133-.055-.284-.049-.415.015l-2 1c-.118.06-.209.164-.251.29s-.032.264.027.382c.557 1.111.557 2.439 0 3.553-.696 1.392-.696 3.054 0 4.446.085.169.258.276.447.276l2-.001c.174 0 .334-.09.426-.237.091-.147.099-.332.021-.486-.557-1.112-.557-2.439 0-3.551z" fill="#c69c6d"/></g></g><g id="Bellsprout"><g><g><path d="m7.64 23.974c-1.472 0-3.375-.928-5.035-2.589-1.123-1.124-1.958-2.412-2.352-3.628-.43-1.33-.288-2.44.398-3.126 1.348-1.344 4.314-.487 6.754 1.953 1.123 1.124 1.958 2.412 2.352 3.628.43 1.33.288 2.44-.398 3.126-.431.431-1.027.635-1.719.636zm-5.27-8.975c-.436 0-.786.114-1.011.339-.401.401-.457 1.171-.153 2.112.345 1.068 1.093 2.214 2.106 3.228 2.148 2.148 4.538 2.754 5.34 1.953.401-.401.457-1.171.153-2.112-.345-1.068-1.093-2.214-2.106-3.228-1.545-1.545-3.215-2.292-4.329-2.292z" fill="#31395a"/></g></g><g><g><ellipse cx="4.996" cy="18.998" fill="#31395a" rx="3.443" ry=".749" transform="matrix(.707 .707 -.707 .707 14.897 2.032)"/></g><g><path d="m7.284 21.98c-.953 0-2.474-1.403-3.17-2.099-.675-.674-1.255-1.37-1.634-1.959-.333-.518-.724-1.259-.271-1.711.802-.798 2.833 1.067 3.671 1.905.675.674 1.255 1.37 1.634 1.959.333.518.724 1.259.271 1.711-.136.136-.307.194-.501.194zm-4.059-4.752c.266.446.781 1.133 1.596 1.947.814.814 1.501 1.33 1.947 1.596-.266-.446-.781-1.133-1.596-1.947s-1.5-1.331-1.947-1.596z" fill="#31395a"/></g></g><g><g><path d="m17.489 15.85c-.232 0-.44-.164-.489-.4-.055-.271.12-.535.391-.59 3.245-.659 5.6-3.544 5.6-6.86 0-3.86-3.141-7-7-7-3.253 0-6.126 2.301-6.832 5.471-.06.269-.322.439-.597.379-.27-.06-.439-.328-.38-.597.807-3.623 4.09-6.253 7.808-6.253 4.411 0 8 3.589 8 8 0 3.79-2.691 7.087-6.4 7.84-.034.007-.068.01-.101.01z" fill="#31395a"/></g></g><g><g><path d="m3.506 15.172c-.186 0-.364-.104-.45-.283-.12-.249-.016-.548.233-.667 3.572-1.724 4.878-7.896 4.891-7.958.056-.271.326-.441.591-.389.271.056.444.32.39.59-.057.273-1.424 6.722-5.438 8.658-.07.033-.144.049-.217.049z" fill="#31395a"/></g></g><g><g><path d="m9.322 20.998c-.069 0-.14-.014-.207-.045-.251-.114-.362-.411-.248-.662 2.127-4.673 8.306-5.409 8.568-5.438.265-.032.521.167.552.441.03.274-.167.521-.441.553-.059.006-5.879.707-7.769 4.858-.084.184-.266.293-.455.293z" fill="#31395a"/></g></g><g><g><circle cx="11.49" cy="7.5" fill="#31395a" r="1"/></g></g><g><g><circle cx="16.49" cy="8.5" fill="#31395a" r="1"/></g></g><g><g><path d="m20.49 23.999c-.183 0-.359-.101-.447-.276-.696-1.392-.696-3.054 0-4.445l.172-.344c.475-.949.551-2.025.215-3.031l-.414-1.244c-.087-.262.055-.545.316-.632.262-.085.545.054.633.317l.414 1.244c.42 1.259.324 2.606-.27 3.794l-.172.344c-.557 1.112-.557 2.439 0 3.551.123.247.023.547-.224.671-.071.034-.148.051-.223.051z" fill="#31395a"/></g></g><g><g><path d="m18.49 23.999c-.183 0-.359-.101-.447-.276-.696-1.392-.696-3.054 0-4.445.557-1.113.557-2.441 0-3.553l.895-.448c.696 1.393.696 3.055 0 4.446-.557 1.113-.557 2.441 0 3.553.123.247.023.547-.224.671-.072.035-.149.052-.224.052z" fill="#31395a"/></g></g></g></g></svg>