<svg width="64" height="28" viewBox="0 0 64 28" fill="none" xmlns="http://www.w3.org/2000/svg">
<path d="M0 2V26H2V28H62V26H64V2H62V0H2V2H0Z" fill="#DEA5DE"/>
<g style="mix-blend-mode:hard-light">
<rect x="2" width="60" height="2" fill="#F7DEF7"/>
<rect y="2" width="2" height="2" fill="#F7DEF7"/>
<rect x="62" y="2" width="2" height="2" fill="#F7DEF7"/>
</g>
<rect x="62" y="28" width="60" height="2" transform="rotate(180 62 28)" fill="#BD94C6"/>
<rect x="64" y="26" width="2" height="2" transform="rotate(180 64 26)" fill="#BD94C6"/>
<rect x="2" y="26" width="2" height="2" transform="rotate(180 2 26)" fill="#BD94C6"/>
<g filter="url(#filter0_ddd_4_649)">
<path d="M51 20H49V14H51V20ZM49 14H47V6H49V14ZM53 14H51V6H53V14Z" fill="white"/>
<path d="M17 8H11V12H15V14H11V20H9V6H17V8Z" fill="white"/>
<path d="M21 12H25V8H27V20H25V14H21V20H19V8H21V12ZM25 8H21V6H25V8Z" fill="white"/>
<path d="M35 8H33V18H35V20H29V18H31V8H29V6H35V8Z" fill="white"/>
<path d="M43 8H39V12H43V14H39V20H37V6H43V8ZM45 20H43V14H45V20ZM45 12H43V8H45V12Z" fill="white"/>
</g>
<defs>
<filter id="filter0_ddd_4_649" x="9" y="6" width="46" height="16" filterUnits="userSpaceOnUse" color-interpolation-filters="sRGB">
<feFlood flood-opacity="0" result="BackgroundImageFix"/>
<feColorMatrix in="SourceAlpha" type="matrix" values="0 0 0 0 0 0 0 0 0 0 0 0 0 0 0 0 0 0 127 0" result="hardAlpha"/>
<feOffset dy="2"/>
<feComposite in2="hardAlpha" operator="out"/>
<feColorMatrix type="matrix" values="0 0 0 0 0.501961 0 0 0 0 0.470588 0 0 0 0 0.439216 0 0 0 1 0"/>
<feBlend mode="normal" in2="BackgroundImageFix" result="effect1_dropShadow_4_649"/>
<feColorMatrix in="SourceAlpha" type="matrix" values="0 0 0 0 0 0 0 0 0 0 0 0 0 0 0 0 0 0 127 0" result="hardAlpha"/>
<feOffset dx="2"/>
<feComposite in2="hardAlpha" operator="out"/>
<feColorMatrix type="matrix" values="0 0 0 0 0.501961 0 0 0 0 0.470588 0 0 0 0 0.439216 0 0 0 1 0"/>
<feBlend mode="normal" in2="effect1_dropShadow_4_649" result="effect2_dropShadow_4_649"/>
<feColorMatrix in="SourceAlpha" type="matrix" values="0 0 0 0 0 0 0 0 0 0 0 0 0 0 0 0 0 0 127 0" result="hardAlpha"/>
<feOffset dx="2" dy="2"/>
<feComposite in2="hardAlpha" operator="out"/>
<feColorMatrix type="matrix" values="0 0 0 0 0.501961 0 0 0 0 0.470588 0 0 0 0 0.439216 0 0 0 1 0"/>
<feBlend mode="normal" in2="effect2_dropShadow_4_649" result="effect3_dropShadow_4_649"/>
<feBlend mode="normal" in="SourceGraphic" in2="effect3_dropShadow_4_649" result="shape"/>
</filter>
</defs>
</svg>
