<svg width="61" height="61" viewBox="0 0 61 61" fill="none" xmlns="http://www.w3.org/2000/svg">
<g clip-path="url(#clip0_63_1016)">
<path d="M40.9862 15.3178C49.1539 18.1853 51.6505 23.3816 48.7831 31.5493C45.9157 39.7185 27.6564 48.4879 19.4884 45.6199C11.3207 42.7525 8.82408 37.5561 11.6921 29.3882C19.2725 7.7943 19.3927 7.73657 40.9862 15.3178Z" fill="#43B530"/>
<path d="M12.6482 31.3787C11.3917 34.9565 11.1649 37.9642 11.9935 40.4561C13.4205 42.6602 15.9101 44.3636 19.4884 45.6198C27.6564 48.4879 45.9157 39.7184 48.7831 31.5492C50.0391 27.9718 50.2654 24.9639 49.4373 22.4721C48.0103 20.268 45.5207 18.5646 41.9424 17.3084C20.3488 9.72712 20.2286 9.78485 12.6482 31.3787Z" fill="#107510"/>
<path d="M12.6483 31.3788C11.8663 33.6048 11.4838 35.6101 11.5056 37.4071C12.8951 38.5484 14.6996 39.5029 16.9256 40.2841C25.0936 43.1521 43.3529 34.3827 46.2203 26.2135C47.0017 23.9878 47.3842 21.9825 47.3627 20.1853C45.9729 19.0442 44.1684 18.0897 41.9424 17.3085C20.3488 9.72717 20.2287 9.7849 12.6483 31.3788Z" fill="#1A8E1C"/>
<path d="M36.3406 43.1742C29.7431 46.343 23.2224 47.4611 19.3227 46.0918C15.0691 44.5983 12.3472 42.5106 11.0011 39.7081C9.65517 36.9059 9.72647 33.4759 11.2202 29.2225C15.0512 18.3092 16.9744 12.8319 20.8679 10.9618C24.7614 9.09174 30.2388 11.0144 41.1521 14.8462C49.5542 17.7959 52.2048 23.3136 49.2552 31.7153C47.8861 35.6145 42.9377 40.0055 36.3406 43.1742ZM21.3008 11.8633C17.9229 13.4857 16.0586 18.4588 12.1637 29.554C10.7625 33.5448 10.6771 36.7246 11.9027 39.2754C13.1278 41.8261 15.6633 43.7474 19.6539 45.1484C23.3125 46.4331 29.5403 45.331 35.9073 42.2729C42.274 39.2149 47.0272 35.0426 48.3114 31.3839C51.0759 23.5093 48.6956 18.5544 40.8206 15.7898C29.7259 11.8943 24.6787 10.2408 21.3008 11.8633Z" fill="#33363A"/>
<path d="M33.1971 19.0591C38.431 23.3356 40.927 28.5323 40.9937 35.2907C41.0607 42.0504 32.5114 46.156 27.2778 41.8786C22.0439 37.602 19.5476 32.4055 19.4812 25.647C19.3047 7.77887 19.3609 7.75188 33.1971 19.0591Z" fill="#43B530"/>
<path d="M21.1886 27.2768C21.2175 30.2371 20.962 33.259 21.9497 35.6741C23.2174 37.9548 24.9847 40.0051 27.2779 41.8786C32.5118 46.1558 41.0611 42.0503 40.9938 35.2906C40.9646 32.3304 40.4692 29.6692 39.4815 27.2541C38.2138 24.9735 35.6951 23.2841 33.4021 21.4105C19.5658 10.1033 21.012 9.40866 21.1886 27.2768Z" fill="#1A8E1C"/>
<path d="M36.3403 43.1743C33.1286 44.7169 29.5346 44.369 26.9613 42.2658C21.5851 37.8731 19.0492 32.5935 18.9811 25.652C18.8881 16.2319 18.846 11.9329 20.8679 10.9618C22.8898 9.99068 26.2193 12.7106 33.5137 18.6718C38.8895 23.0643 41.4255 28.3435 41.4939 35.2856C41.5269 38.6086 39.552 41.6316 36.3403 43.1743ZM21.3009 11.8632C19.852 12.5591 19.9005 17.4836 19.9811 25.642C20.0464 32.2643 22.4655 37.3008 27.5943 41.4918C29.8636 43.3464 33.0493 43.6456 35.9073 42.2729C38.7654 40.9001 40.5228 38.2266 40.4938 35.296C40.4284 28.6734 38.009 23.637 32.8806 19.4463C26.563 14.2832 22.7497 11.1673 21.3009 11.8632Z" fill="#33363A"/>
<path d="M48.3449 30.2829C51.3289 36.4954 47.1284 44.7125 38.9625 48.6346C30.7963 52.557 21.757 50.6988 18.7732 44.4865C15.7886 38.2728 18.8322 27.6479 26.9984 23.7256C35.1643 19.8034 45.3604 24.0691 48.3449 30.2829Z" fill="#80EDAC"/>
<path d="M48.3449 30.2828C51.3289 36.4953 47.1284 44.7124 38.9625 48.6346C30.7963 52.5569 21.757 50.6987 18.7732 44.4865C15.7886 38.2727 20.352 30.8121 28.5182 26.8898C36.6842 22.9676 45.3604 24.069 48.3449 30.2828Z" fill="#6ADB9A"/>
<path d="M37.1387 36.8021C37.3398 37.2206 35.9663 37.9727 34.2272 38.8081C32.4881 39.6434 31.0425 40.2453 30.8414 39.8267C30.6401 39.4076 31.524 37.6362 33.2631 36.8009C35.0023 35.9656 36.9375 36.3832 37.1387 36.8021Z" fill="#80EDAC"/>
<path d="M48.345 30.2828C51.3289 36.4953 47.1285 44.7124 38.9626 48.6346C30.7963 52.5569 21.757 50.6987 18.7732 44.4865C15.7884 38.2721 23.3013 49.0935 36.2059 42.8953C49.1105 36.697 45.3601 24.0684 48.345 30.2828Z" fill="#47C67B"/>
<path d="M39.7421 39.8001C40.3039 40.9699 38.9316 42.7953 36.6778 43.8778C34.424 44.9604 32.1413 44.8905 31.5795 43.7207" fill="#BA503A"/>
<path d="M36.8942 44.3283C34.3528 45.5489 31.8204 45.3771 31.1287 43.9369C31.0092 43.6881 31.1138 43.3894 31.3629 43.2697C31.612 43.1501 31.9106 43.2552 32.0301 43.504C32.4088 44.2924 34.3215 44.4546 36.4612 43.4269C38.6009 42.3992 39.6699 40.8048 39.2912 40.0163C39.1718 39.7675 39.2764 39.4688 39.5255 39.3492C39.7746 39.2295 40.0732 39.3346 40.1927 39.5834C40.8844 41.0235 39.4355 43.1076 36.8942 44.3283Z" fill="#33363A"/>
<path d="M39.179 49.0853C30.7775 53.1206 21.4213 51.1547 18.3225 44.703C15.2528 38.312 18.342 27.3286 26.7819 23.2748C30.7004 21.3928 35.3154 21.1996 39.7769 22.7302C43.8968 24.1438 47.2683 26.8865 48.7956 30.0664C51.8946 36.5184 47.5805 45.05 39.179 49.0853ZM27.2149 24.1763C19.274 27.9903 16.3503 38.2873 19.2239 44.27C22.084 50.2248 30.8416 51.9805 38.7461 48.1839C46.6505 44.3873 50.7544 36.4541 47.8942 30.4993C45.0207 24.5166 35.1558 20.3622 27.2149 24.1763Z" fill="#33363A"/>
<path d="M28.148 38.5622C28.7901 39.899 28.2268 41.5015 26.8906 42.1433C25.5544 42.7851 23.9516 42.2229 23.3096 40.8862C22.6678 39.55 23.2305 37.9469 24.5667 37.3051C25.9026 36.6635 27.5063 37.226 28.148 38.5622Z" fill="#AD2707"/>
<path d="M28.148 38.5622C28.7901 39.899 27.305 39.5824 25.9688 40.2242C24.6326 40.866 23.9516 42.2229 23.3096 40.8862C22.6678 39.55 23.2305 37.9469 24.5667 37.3051C25.9026 36.6635 27.5063 37.226 28.148 38.5622Z" fill="#33363A"/>
<path d="M27.1071 42.594C25.5248 43.354 23.619 42.6852 22.8589 41.1026C22.0987 39.52 22.768 37.6144 24.3503 36.8544C25.9328 36.0943 27.8386 36.7631 28.5988 38.3457C29.3589 39.9282 28.6896 41.8339 27.1071 42.594ZM24.7832 37.7558C23.6979 38.2771 23.2389 39.584 23.7603 40.6696C24.2817 41.7552 25.5885 42.214 26.6741 41.6926C27.7597 41.1712 28.2188 39.8642 27.6974 38.7786C27.1759 37.693 25.8688 37.2344 24.7832 37.7558Z" fill="#33363A"/>
<path d="M24.6214 40.5016C25.1659 40.2401 25.3953 39.5867 25.1337 39.0423C24.8722 38.4978 24.2189 38.2684 23.6744 38.5299C23.1299 38.7914 22.9005 39.4448 23.1621 39.9893C23.4236 40.5337 24.0769 40.7631 24.6214 40.5016Z" fill="white"/>
<path d="M24.8376 40.9524C24.0456 41.3329 23.0918 40.9978 22.7114 40.2057C22.3309 39.4137 22.6662 38.4602 23.4579 38.0799C24.25 37.6995 25.2039 38.0342 25.5842 38.8259C25.9647 39.6182 25.6297 40.572 24.8376 40.9524ZM23.8909 38.9814C23.5961 39.1229 23.4712 39.478 23.6128 39.7728C23.7545 40.0678 24.1099 40.1926 24.4047 40.051C24.6997 39.9093 24.8245 39.5539 24.6828 39.2589C24.5412 38.9641 24.1862 38.8395 23.8909 38.9814Z" fill="#33363A"/>
<path d="M42.699 31.5732C43.341 32.91 42.778 34.5124 41.4418 35.1542C40.1056 35.796 38.5025 35.2339 37.8605 33.8971C37.2187 32.5609 37.7814 30.9579 39.1179 30.316C40.4538 29.6743 42.0572 30.237 42.699 31.5732Z" fill="#AD2707"/>
<path d="M42.699 31.5732C43.341 32.91 41.8562 32.5933 40.52 33.2351C39.1838 33.8769 38.5025 35.2339 37.8605 33.8971C37.2187 32.5609 37.7814 30.9579 39.1179 30.316C40.4538 29.6743 42.0572 30.237 42.699 31.5732Z" fill="#33363A"/>
<path d="M41.6583 35.6049C40.0757 36.365 38.1699 35.6962 37.4098 34.1136C36.6496 32.531 37.3189 30.6254 38.9015 29.8653C40.4838 29.1053 42.3895 29.7741 43.1497 31.3567C43.9098 32.9392 43.2405 34.8449 41.6583 35.6049ZM39.3344 30.7667C38.2488 31.2881 37.7898 32.595 38.3112 33.6806C38.8326 34.7662 40.1397 35.2249 41.2253 34.7034C42.3106 34.1822 42.7697 32.8752 42.2483 31.7896C41.7268 30.704 40.4197 30.2454 39.3344 30.7667Z" fill="#33363A"/>
<path d="M39.1722 33.5123C39.7165 33.2508 39.9458 32.5977 39.6843 32.0534C39.4229 31.509 38.7697 31.2797 38.2254 31.5412C37.6811 31.8026 37.4518 32.4558 37.7132 33.0001C37.9747 33.5444 38.6278 33.7737 39.1722 33.5123Z" fill="white"/>
<path d="M39.3891 33.9632C38.597 34.3436 37.6429 34.0087 37.2625 33.2166C36.8821 32.4246 37.2173 31.4711 38.0094 31.0907C38.8011 30.7104 39.7547 31.0452 40.135 31.8369C40.5156 32.6293 40.1808 33.5829 39.3891 33.9632ZM38.4423 31.9921C38.1473 32.1338 38.0224 32.4889 38.1639 32.7836C38.3057 33.0787 38.661 33.2035 38.9561 33.0618C39.2509 32.9202 39.3753 32.5649 39.2336 32.2699C39.092 31.9751 38.7371 31.8505 38.4423 31.9921Z" fill="#33363A"/>
<path d="M35.6826 42.9769C35.4847 42.7388 34.3779 42.4162 31.6702 43.7718C27.5744 45.8212 25.0908 43.9341 24.9876 43.8524C24.7709 43.6814 24.7337 43.3668 24.9047 43.1501C25.0752 42.9347 25.3882 42.8964 25.6048 43.0656C25.695 43.1347 27.7215 44.6416 31.2228 42.8774C31.6631 42.66 35.535 40.7833 36.522 42.4355L35.6636 42.948C35.6633 42.9481 35.668 42.9596 35.6826 42.9769Z" fill="#33363A"/>
<path d="M36.5967 42.5379C36.5921 42.5161 36.586 42.505 36.586 42.505L35.6494 42.8546C34.9764 41.0508 38.8641 39.2009 39.307 38.9944C42.9076 37.3483 42.9653 34.756 42.9654 34.7301C42.9673 34.4537 43.1928 34.2319 43.4692 34.2337C43.7453 34.2357 43.9675 34.4614 43.9655 34.7375C43.9644 34.869 43.8891 37.9766 39.7257 39.9031C36.9773 41.1592 36.5346 42.2346 36.5967 42.5379Z" fill="#33363A"/>
<path d="M34.2172 40.6543C34.0977 40.7118 33.9554 40.722 33.8216 40.6706L33.1417 40.4099C32.8837 40.3108 32.7549 40.0218 32.8536 39.7639C32.9529 39.5062 33.2418 39.3771 33.4997 39.4762L34.1796 39.7368C34.4376 39.8359 34.5665 40.1249 34.4677 40.3828C34.4198 40.5071 34.3281 40.6011 34.2172 40.6543Z" fill="#33363A"/>
<path d="M35.6998 39.9423C35.5886 39.9957 35.4578 40.0082 35.3313 39.968C35.0683 39.8839 34.9231 39.6024 35.0071 39.3394L35.2287 38.6457C35.3128 38.3827 35.5942 38.238 35.8572 38.3213C36.1202 38.4054 36.2654 38.687 36.1813 38.95L35.9598 39.6436C35.9163 39.7802 35.8197 39.8847 35.6998 39.9423Z" fill="#33363A"/>
<path d="M19.8901 32.3848C20.4072 31.4598 21.0611 30.6893 21.7737 30.1034C21.5414 29.2979 21.0845 28.6432 20.4083 28.2654C18.9416 27.4452 16.9117 28.1672 15.4185 29.884C14.7376 32.0556 15.1857 34.1633 16.6521 34.9829C17.3286 35.3613 18.1252 35.4077 18.9335 35.1836C19.0591 34.2694 19.3733 33.3091 19.8901 32.3848Z" fill="#9CFFC4"/>
<path d="M19.7165 29.5842C18.404 28.8505 16.6416 29.3538 15.2153 30.6975C14.8669 32.5651 15.3704 34.2661 16.6521 34.9829C17.2145 35.2978 17.8601 35.38 18.5259 35.271C18.6903 34.7464 19.2964 34.8303 19.5849 34.3138C19.6694 34.1626 19.376 33.4116 19.4677 33.2685C19.591 32.9723 19.7267 32.6767 19.8897 32.3847C20.1878 31.8513 20.535 31.3762 20.9091 30.9517C20.652 30.3633 20.2553 29.8846 19.7165 29.5842Z" fill="#80EDAC"/>
<path d="M19.1509 35.6338C19.1245 35.6465 19.0966 35.657 19.0677 35.6653C18.097 35.9348 17.1774 35.8495 16.4084 35.4194C14.7549 34.4952 14.1656 32.2105 14.9418 29.7346C14.9625 29.6692 14.9965 29.6082 15.0414 29.5562C16.7443 27.5983 18.9989 26.9047 20.6524 27.829C21.4212 28.2585 21.9752 28.9971 22.254 29.9648C22.3306 30.2297 22.1751 30.5056 21.9123 30.5837C21.6469 30.6602 21.3697 30.5071 21.2932 30.2417C21.0886 29.5324 20.6982 28.9999 20.1643 28.7013C18.9744 28.0362 17.2186 28.6252 15.8651 30.1332C15.2886 32.0764 15.7064 33.881 16.8959 34.5459C17.4303 34.8447 18.0885 34.8987 18.7999 34.7012C19.0658 34.6275 19.3415 34.7835 19.4153 35.0494C19.4811 35.2866 19.3648 35.5311 19.1509 35.6338Z" fill="#33363A"/>
<path d="M38.2009 23.59C37.1552 23.4155 36.1454 23.4442 35.2427 23.6341C34.7588 22.9494 34.5334 22.1835 34.6615 21.4194C34.9378 19.762 36.7705 18.6288 39.044 18.5364C41.1643 19.3625 42.5298 21.0297 42.2529 22.6866C42.125 23.4513 41.6635 24.1019 40.9831 24.593C40.1913 24.1194 39.245 23.7645 38.2009 23.59Z" fill="#9CFFC4"/>
<path d="M36.1234 21.7038C36.371 20.2207 37.8657 19.1597 39.8056 18.8865C41.4815 19.7818 42.4946 21.2381 42.2528 22.6866C42.1467 23.3226 41.8074 23.8779 41.3064 24.3293C40.7939 24.1299 40.4808 24.6552 39.8973 24.5575C39.7262 24.5292 39.3237 23.8306 39.1546 23.8127C38.8461 23.7238 38.5308 23.6449 38.201 23.5896C37.598 23.489 37.0104 23.4629 36.445 23.4897C36.1467 22.9211 36.021 22.3121 36.1234 21.7038Z" fill="#80EDAC"/>
<path d="M41.1986 25.0441C40.9847 25.1469 40.7209 25.085 40.577 24.8856C40.4155 24.6618 40.4661 24.349 40.6901 24.1878C41.2885 23.7562 41.6583 23.2088 41.7593 22.6045C41.9839 21.2604 40.836 19.806 38.9593 19.0415C36.9361 19.1554 35.3785 20.1576 35.1545 21.5021C35.0533 22.1058 35.225 22.7429 35.6508 23.346C35.8102 23.5716 35.7566 23.8835 35.531 24.0429C35.3043 24.1999 34.9934 24.1484 34.8342 23.9231C34.2529 23.1003 34.0225 22.2063 34.1682 21.3372C34.48 19.4694 36.4314 18.1431 39.0237 18.0377C39.0922 18.0347 39.161 18.0464 39.2255 18.0713C41.6431 19.0135 43.0581 20.9016 42.7457 22.7697C42.6006 23.6393 42.0922 24.41 41.2751 24.9992C41.2506 25.0161 41.2251 25.0314 41.1986 25.0441Z" fill="#33363A"/>
<path d="M28.804 32.4613C27.546 33.0656 26.0362 32.5353 25.4319 31.2772C24.8278 30.0195 26.1956 28.8037 27.4537 28.1995C28.7118 27.5952 29.3837 27.8316 29.9877 29.0891C30.5919 30.3471 30.0621 31.857 28.804 32.4613Z" fill="#47C67B"/>
<path d="M33.3083 30.2975C33.7509 30.085 33.9373 29.5539 33.7247 29.1113C33.5122 28.6687 32.9811 28.4823 32.5385 28.6948C32.0959 28.9074 31.9094 29.4385 32.122 29.8811C32.3346 30.3237 32.8657 30.5101 33.3083 30.2975Z" fill="#47C67B"/>
<path d="M36.0448 27.9973C36.3744 27.839 36.5132 27.4435 36.3549 27.114C36.1966 26.7844 35.8011 26.6456 35.4716 26.8039C35.142 26.9621 35.0031 27.3576 35.1614 27.6872C35.3197 28.0168 35.7152 28.1556 36.0448 27.9973Z" fill="#47C67B"/>
<path d="M34.1927 34.642C34.4098 34.5377 34.5012 34.2772 34.397 34.0602C34.2927 33.8431 34.0323 33.7517 33.8152 33.8559C33.5981 33.9602 33.5067 34.2207 33.611 34.4377C33.7152 34.6548 33.9757 34.7462 34.1927 34.642Z" fill="#47C67B"/>
<path d="M25.4965 34.1787C25.9115 33.9793 26.0864 33.4813 25.887 33.0662C25.6877 32.6512 25.1896 32.4764 24.7746 32.6757C24.3596 32.875 24.1847 33.3731 24.3841 33.7881C24.5834 34.2031 25.0815 34.378 25.4965 34.1787Z" fill="#47C67B"/>
<path d="M28.7525 44.4969L27.6633 46.1202L26.7114 44.4133" fill="white"/>
<path d="M27.8797 46.5708C27.807 46.6058 27.7258 46.623 27.6425 46.6197C27.4689 46.6125 27.3111 46.5156 27.2267 46.3638L26.2749 44.657C26.1402 44.4159 26.2269 44.1113 26.4681 43.9766C26.7064 43.8407 27.014 43.9285 27.148 44.1696L27.7025 45.1639L28.3372 44.2182C28.4907 43.9888 28.8015 43.9275 29.0309 44.0817C29.2601 44.2356 29.3212 44.5461 29.1675 44.7757L28.0782 46.399C28.0278 46.4742 27.9588 46.5329 27.8797 46.5708Z" fill="#33363A"/>
<path d="M42.115 38.0787L44.063 38.2432L43.3257 36.4333" fill="white"/>
<path d="M44.2794 38.6939C44.2004 38.7319 44.1114 38.7491 44.0209 38.7415L42.073 38.577C41.7977 38.5536 41.5935 38.3118 41.6167 38.0366C41.6395 37.7616 41.8819 37.5572 42.1568 37.5805L43.2918 37.6762L42.8623 36.6219C42.7582 36.3668 42.884 36.0704 43.1367 35.9705C43.3925 35.8665 43.6844 35.9892 43.7884 36.2451L44.5257 38.0549C44.5913 38.2161 44.5684 38.3994 44.4656 38.5394C44.4163 38.6063 44.3521 38.659 44.2794 38.6939Z" fill="#33363A"/>
</g>
<defs>
<clipPath id="clip0_63_1016">
<rect width="45" height="45" fill="white" transform="translate(0 19.4832) rotate(-25.6555)"/>
</clipPath>
</defs>
</svg>
