<svg width="63" height="63" viewBox="0 0 63 63" fill="none" xmlns="http://www.w3.org/2000/svg">
<g clip-path="url(#clip0_63_1008)">
<path d="M24.9981 48.2781L30.5411 50.8419L36.5241 51.5617L42.006 49.37L45.957 46.3301L48.1891 43.2916L50.0049 37.9649L49.0633 32.1551L47.3278 28.2064L22.2788 44.7481L24.9981 48.2781Z" fill="#ED5564"/>
<path d="M46.7284 28.9012L46.7075 28.1328L43.2536 24.7584L37.019 21.4368L28.4079 17.4936L20.6926 12.6666L19.0719 13.2307L18.2237 14.7616L19.1173 19.3514L19.516 24.8818L19.8402 29.8867L19.6113 34.5144L20.0296 39.0944L21.584 44.1487L46.7284 28.9012Z" fill="#F5F7FA"/>
<path d="M30.1646 39.4604C28.5597 36.943 29.2993 33.602 31.8168 31.9971C34.3343 30.3922 37.6754 31.1319 39.2802 33.6493C40.8851 36.1668 40.1454 39.5079 37.628 41.1127C35.1105 42.7176 31.7694 41.9779 30.1646 39.4604Z" fill="#A0D468"/>
<path d="M25.4944 49.6391C27.1887 50.8 29.0732 51.6229 31.0958 52.0826C33.1317 52.5452 35.1958 52.6153 37.2311 52.2901C39.3569 51.9512 41.3514 51.1943 43.1625 50.0397C44.973 48.8856 46.5016 47.3965 47.7062 45.6123C48.86 43.9045 49.6677 42.0037 50.1076 39.9628C50.5446 37.9352 50.5944 35.879 50.2573 33.853C49.908 31.7582 49.1605 29.8001 48.0339 28.033C45.5801 24.1838 41.8646 22.5527 37.1603 20.4868C33.1624 18.731 28.1869 16.5464 22.4266 12.2841C21.7884 11.7952 20.3546 11.2142 18.9731 12.0949C17.5986 12.9712 17.4764 14.4528 17.6213 15.1911L17.6223 15.2002C19.0905 22.2932 18.98 27.7607 18.8923 32.1553C18.7908 37.2815 18.7091 41.3301 21.1555 45.1677C22.282 46.9348 23.7423 48.4386 25.4944 49.6391ZM48.2745 39.5679C47.4703 43.297 45.2968 46.4544 42.1541 48.4579C39.0114 50.4613 35.2322 51.0986 31.5115 50.2541C29.721 49.8468 28.0521 49.1193 26.5546 48.0935C25.275 47.2155 24.1729 46.156 23.2692 44.9326L29.622 40.8827C31.7139 43.316 35.3402 43.9081 38.1228 42.1342C40.9054 40.3603 41.8989 36.8232 40.5758 33.8998L44.5522 31.3649C47.2485 36.4844 45.6066 42.9217 40.6422 46.0864C40.4401 46.2152 40.2869 46.4219 40.2311 46.6742C40.119 47.1805 40.438 47.6808 40.9443 47.7928C41.1964 47.8487 41.4485 47.7971 41.6512 47.6679C44.607 45.7836 46.6523 42.8609 47.4093 39.4371C48.0996 36.3213 47.6466 33.1315 46.1381 30.3539L46.9291 29.8496C47.6562 31.1856 48.1527 32.6312 48.408 34.1623C48.7059 35.9528 48.6615 37.7725 48.2745 39.5679ZM30.6416 39.1204C29.2523 36.9411 29.8962 34.0374 32.0755 32.648C34.2548 31.2588 37.1585 31.901 38.5478 34.0804C39.9371 36.2597 39.2945 39.1643 37.1152 40.5536C34.9359 41.9429 32.0309 41.2998 30.6416 39.1204ZM20.7678 32.1925C20.8567 27.7078 20.969 22.1284 19.4624 14.8384C19.4622 14.8369 19.4622 14.8369 19.4615 14.8358L19.4612 14.8327C19.4609 14.8296 19.4591 14.8243 19.4588 14.8212L19.4621 14.8354C19.4565 14.7998 19.4467 14.7117 19.4541 14.5929L24.2302 22.085C24.5085 22.5216 25.0874 22.6492 25.524 22.3709C25.9606 22.0926 26.0891 21.5139 25.8109 21.0773L21.0775 13.6523C21.188 13.7057 21.265 13.7575 21.2925 13.7775L21.3045 13.7862C27.2354 18.1759 32.3209 20.4092 36.4067 22.2033C40.6264 24.057 43.7676 25.4371 45.9162 28.2724L39.5681 32.3192C37.4763 29.8858 33.8505 29.2935 31.0679 31.0674C28.2853 32.8413 27.2913 36.3787 28.6144 39.3021L22.2663 43.349C20.6093 40.2133 20.6759 36.7899 20.7678 32.1925Z" fill="#080808"/>
<path d="M36.611 39.7627C38.3543 38.6514 38.868 36.3289 37.7576 34.5857L37.7568 34.5846L37.7539 34.58C37.6242 34.3792 37.4203 34.2292 37.1695 34.1741C36.6638 34.0617 36.1635 34.3806 36.052 34.8865C35.996 35.1371 36.046 35.3854 36.1732 35.5876L36.1726 35.588C36.1741 35.5903 36.1755 35.5911 36.1762 35.5922C36.7321 36.4642 36.4754 37.6262 35.6034 38.182C35.4013 38.3109 35.2474 38.5165 35.1923 38.7698C35.0795 39.275 35.3984 39.7752 35.9047 39.8873C36.1568 39.9431 36.4089 39.8915 36.611 39.7627Z" fill="#080808"/>
</g>
<defs>
<clipPath id="clip0_63_1008">
<rect width="45" height="45" fill="white" transform="translate(62.1352 37.9454) rotate(147.483)"/>
</clipPath>
</defs>
</svg>
