<svg id="Layer_1" enable-background="new 0 0 135 135" height="135" viewBox="0 0 135 135" width="135" xmlns="http://www.w3.org/2000/svg"><g><g><g><g><g><path d="m117.667 12.793c6.312 8.672 7.636 20.494 2.378 30.676-5.255 10.186-15.657 15.955-26.385 15.834-6.312-8.674-7.635-20.496-2.379-30.678 5.256-10.184 15.657-15.953 26.386-15.832z" fill="#ffecd2"/></g><g><path d="m93.66 59.303c-6.312-8.674-7.635-20.496-2.379-30.678 5.256-10.184 15.657-15.953 26.386-15.832" fill="#f4d3a2"/></g><g><path d="m93.991 60.805-.348-.002c-.474-.006-.917-.234-1.196-.617-6.909-9.493-7.867-21.851-2.499-32.249 5.299-10.267 15.793-16.646 27.388-16.646l.348.002c.474.006.917.234 1.196.617 6.91 9.494 7.867 21.85 2.498 32.247-5.298 10.269-15.792 16.648-27.387 16.648zm22.901-46.51c-10.29.16-19.563 5.884-24.278 15.018-4.728 9.159-4.016 20.005 1.821 28.488 10.291-.16 19.563-5.884 24.277-15.02 4.729-9.158 4.017-20.003-1.82-28.486z" fill="#33363a"/></g></g><g><g><path d="m113.052 23.646c3.885 5.338 4.699 12.615 1.464 18.881-3.234 6.27-9.637 9.82-16.24 9.746-3.885-5.338-4.699-12.615-1.464-18.881 3.235-6.269 9.636-9.82 16.24-9.746z" fill="#efa3cc"/></g><g><path d="m98.479 53.774-.22-.001c-.474-.006-.917-.234-1.196-.617-4.382-6.021-4.989-13.857-1.584-20.452 3.361-6.513 10.017-10.559 17.37-10.559l.22.001c.474.006.917.234 1.196.617 4.382 6.021 4.989 13.857 1.584 20.452-3.36 6.514-10.016 10.559-17.37 10.559zm13.794-28.619c-5.996.203-11.373 3.584-14.129 8.925-2.765 5.354-2.402 11.678.909 16.685 5.997-.203 11.374-3.584 14.129-8.925 2.765-5.355 2.403-11.678-.909-16.685z" fill="#33363a"/></g></g></g><g><g><g><path d="m17.333 12.793c-6.312 8.672-7.636 20.494-2.378 30.676 5.255 10.185 15.657 15.955 26.385 15.834 6.312-8.674 7.635-20.496 2.379-30.678-5.256-10.184-15.657-15.953-26.386-15.832z" fill="#ffecd2"/></g><g><path d="m41.34 59.303c6.312-8.674 7.635-20.496 2.379-30.678-5.256-10.184-15.657-15.953-26.386-15.832" fill="#f4d3a2"/></g><g><path d="m41.009 60.805c-11.595 0-22.089-6.38-27.387-16.648-5.369-10.397-4.412-22.753 2.498-32.247.279-.383.722-.611 1.196-.617l.348-.002c11.594 0 22.088 6.379 27.388 16.646 5.368 10.397 4.41 22.755-2.499 32.248-.279.383-.722.611-1.196.617zm-22.901-46.51c-5.837 8.483-6.549 19.328-1.82 28.485 4.713 9.136 13.986 14.86 24.277 15.021 5.837-8.483 6.549-19.329 1.821-28.487-4.715-9.135-13.988-14.859-24.278-15.019z" fill="#33363a"/></g></g><g><g><path d="m21.948 23.646c-3.885 5.338-4.699 12.615-1.464 18.881 3.234 6.27 9.637 9.82 16.24 9.746 3.885-5.338 4.699-12.615 1.464-18.881-3.235-6.269-9.636-9.82-16.24-9.746z" fill="#efa3cc"/></g><g><path d="m36.521 53.774c-7.354 0-14.01-4.046-17.37-10.56-3.405-6.594-2.798-14.43 1.584-20.451.279-.383.722-.611 1.196-.617l.22-.001c7.353 0 14.009 4.046 17.37 10.56 3.405 6.594 2.798 14.43-1.584 20.451-.279.383-.722.611-1.196.617zm-13.794-28.619c-3.312 5.007-3.674 11.33-.909 16.684 2.755 5.342 8.132 8.723 14.129 8.926 3.312-5.007 3.674-11.33.909-16.684-2.757-5.342-8.133-8.723-14.129-8.926z" fill="#33363a"/></g></g></g></g><g><g><g><path d="m116.709 84.768c0 20.676-22.031 37.441-49.209 37.441s-49.209-16.766-49.209-37.441c0-20.68 22.031-45.459 49.209-45.459s49.209 24.779 49.209 45.459z" fill="#f4d3a2"/></g><g><path d="m116.709 84.768c0 20.676-22.031 37.441-49.209 37.441s-49.209-16.766-49.209-37.441c0-20.68 22.031-34.928 49.209-34.928s49.209 14.248 49.209 34.928z" fill="#f4d3a2"/></g><g><path d="m116.709 84.768c0 20.676-22.031 37.441-49.209 37.441s-49.209-16.766-49.209-37.441c0-20.682 6.262 18.34 49.209 18.34s49.209-39.022 49.209-18.34z" fill="#e2bf91"/></g><g><path d="m67.5 123.709c-27.961 0-50.709-17.469-50.709-38.941 0-21.27 22.62-46.959 50.709-46.959 13.041 0 25.772 5.472 35.849 15.406 9.305 9.174 14.86 20.97 14.86 31.553 0 21.472-22.748 38.941-50.709 38.941zm0-82.9c-26.428 0-47.709 24.048-47.709 43.959 0 19.818 21.402 35.941 47.709 35.941s47.709-16.123 47.709-35.941c0-19.912-21.281-43.959-47.709-43.959z" fill="#33363a"/></g></g><g><path d="m77.936 97.049c0 1.393-4.691 1.643-10.478 1.643s-10.479-.25-10.479-1.643c0-1.395 4.691-5.037 10.479-5.037 5.786 0 10.478 3.642 10.478 5.037z" fill="#f4d3a2"/></g><g><g><path d="m58.474 83.477c-.367 0-.735-.134-1.025-.405l-12.75-11.938c-.604-.566-.636-1.516-.07-2.12s1.515-.638 2.121-.069l12.75 11.937c.604.566.636 1.516.07 2.12-.296.315-.695.475-1.096.475z" fill="#33363a"/></g><g><path d="m76.526 83.477c-.401 0-.8-.159-1.096-.475-.566-.604-.535-1.554.07-2.12l12.75-11.938c.606-.567 1.555-.535 2.121.069s.535 1.554-.07 2.12l-12.75 11.938c-.29.272-.658.406-1.025.406z" fill="#33363a"/></g></g><g><g><g><g><path d="m96.837 113.805 22.472-1.53-1.391-8.837 12.715-5.594-7.049-11.971 6.295-6.357-17.342-14.373-14.654 14.804.859.713-9.041 3.977 5.01 8.509-1.115.079z" fill="#e2bf91"/></g><g><path d="m96.835 115.305c-.782 0-1.441-.606-1.495-1.398-.056-.826.568-1.542 1.395-1.598l20.837-1.419-1.136-7.219c-.105-.673.255-1.332.878-1.606l11.17-4.914-6.192-10.517c-.346-.586-.252-1.332.227-1.816l5.142-5.192-16.08-13.327c-.638-.529-.727-1.475-.198-2.112.528-.638 1.474-.727 2.112-.198l17.342 14.373c.324.269.521.661.541 1.082.021.42-.136.83-.432 1.129l-5.482 5.536 6.462 10.976c.217.369.267.813.135 1.222-.132.407-.432.739-.824.912l-11.658 5.129 1.211 7.696c.065.416-.047.84-.31 1.169-.262.329-.651.532-1.07.561l-22.472 1.529c-.034.001-.068.002-.103.002z" fill="#33363a"/></g></g></g><g><g><g><path d="m38.163 113.805-22.472-1.53 1.391-8.837-12.715-5.594 7.049-11.971-6.295-6.357 17.342-14.373 14.654 14.804-.859.713 9.041 3.977-5.01 8.509 1.115.079z" fill="#e2bf91"/></g><g><path d="m38.165 115.305c-.034 0-.069-.001-.104-.004l-22.472-1.529c-.419-.028-.808-.231-1.07-.561-.263-.329-.375-.753-.31-1.169l1.211-7.696-11.657-5.129c-.392-.173-.692-.505-.824-.912-.131-.408-.082-.853.135-1.222l6.462-10.976-5.482-5.536c-.296-.299-.453-.709-.432-1.129.021-.421.217-.813.541-1.082l17.342-14.373c.639-.527 1.584-.439 2.112.198.529.638.44 1.583-.198 2.112l-16.079 13.328 5.142 5.192c.479.484.572 1.23.227 1.816l-6.193 10.517 11.17 4.914c.623.274.983.934.878 1.606l-1.136 7.219 20.837 1.419c.826.056 1.451.771 1.395 1.598-.054.792-.713 1.399-1.495 1.399z" fill="#33363a"/></g></g></g></g><g><g><g><g><g><path d="m51.338 88.811c0 4.449-3.605 8.051-8.053 8.051-4.445 0-8.051-3.602-8.051-8.051 0-4.447 3.605-8.053 8.051-8.053 4.447 0 8.053 3.605 8.053 8.053z" fill="#cc4306"/></g><g><path d="m51.338 88.811c0 4.449-3.605 1.662-8.053 1.662-4.445 0-8.051 2.787-8.051-1.662 0-4.447 3.605-8.053 8.051-8.053 4.447 0 8.053 3.605 8.053 8.053z" fill="#33363a"/></g><g><path d="m43.285 98.361c-5.266 0-9.551-4.284-9.551-9.551 0-5.268 4.285-9.553 9.551-9.553 5.268 0 9.553 4.285 9.553 9.553 0 5.267-4.285 9.551-9.553 9.551zm0-16.103c-3.612 0-6.551 2.939-6.551 6.553 0 3.612 2.938 6.551 6.551 6.551s6.553-2.938 6.553-6.551c0-3.614-2.94-6.553-6.553-6.553z" fill="#33363a"/></g></g><g><g><circle cx="39.282" cy="86.193" fill="#fff" r="3.28"/></g><g><path d="m39.281 90.973c-2.635 0-4.779-2.144-4.779-4.779s2.144-4.779 4.779-4.779c2.636 0 4.781 2.144 4.781 4.779s-2.145 4.779-4.781 4.779zm0-6.559c-.981 0-1.779.798-1.779 1.779s.798 1.779 1.779 1.779c.982 0 1.781-.798 1.781-1.779s-.799-1.779-1.781-1.779z" fill="#33363a"/></g></g></g><g><g><g><path d="m99.766 88.811c0 4.449-3.605 8.051-8.051 8.051-4.447 0-8.053-3.602-8.053-8.051 0-4.447 3.605-8.053 8.053-8.053 4.445 0 8.051 3.605 8.051 8.053z" fill="#cc4306"/></g><g><path d="m99.766 88.811c0 4.449-3.605 1.662-8.051 1.662-4.447 0-8.053 2.787-8.053-1.662 0-4.447 3.605-8.053 8.053-8.053 4.445 0 8.051 3.605 8.051 8.053z" fill="#33363a"/></g><g><path d="m91.715 98.361c-5.268 0-9.553-4.284-9.553-9.551 0-5.268 4.285-9.553 9.553-9.553 5.266 0 9.551 4.285 9.551 9.553 0 5.267-4.285 9.551-9.551 9.551zm0-16.103c-3.613 0-6.553 2.939-6.553 6.553 0 3.612 2.939 6.551 6.553 6.551 3.612 0 6.551-2.938 6.551-6.551 0-3.614-2.939-6.553-6.551-6.553z" fill="#33363a"/></g></g><g><g><circle cx="87.71" cy="86.193" fill="#fff" r="3.28"/></g><g><path d="m87.709 90.973c-2.635 0-4.779-2.144-4.779-4.779s2.144-4.779 4.779-4.779c2.636 0 4.781 2.144 4.781 4.779s-2.145 4.779-4.781 4.779zm0-6.559c-.981 0-1.779.798-1.779 1.779s.798 1.779 1.779 1.779c.982 0 1.781-.798 1.781-1.779s-.799-1.779-1.781-1.779z" fill="#33363a"/></g></g></g></g></g></g><g><g><ellipse cx="67.5" cy="103.85" fill="#ffcae8" rx="12.83" ry="7.93"/></g><g><path d="m80.33 103.85c0 4.379-5.744 7.93-12.83 7.93s-12.83-3.551-12.83-7.93 5.744-1.049 12.83-1.049 12.83-3.33 12.83 1.049z" fill="#efa3cc"/></g><g><path d="m67.5 113.279c-8.036 0-14.33-4.142-14.33-9.43 0-5.286 6.294-9.428 14.33-9.428s14.33 4.142 14.33 9.428c0 5.289-6.294 9.43-14.33 9.43zm0-15.857c-6.142 0-11.33 2.943-11.33 6.428s5.188 6.43 11.33 6.43 11.33-2.944 11.33-6.43c0-3.485-5.188-6.428-11.33-6.428z" fill="#33363a"/></g></g><g><g><path d="m63.916 107.545c-.829 0-1.5-.672-1.5-1.5v-3.955c0-.828.671-1.5 1.5-1.5s1.5.672 1.5 1.5v3.955c0 .828-.671 1.5-1.5 1.5z" fill="#33363a"/></g><g><path d="m71.084 107.545c-.829 0-1.5-.672-1.5-1.5v-3.955c0-.828.671-1.5 1.5-1.5s1.5.672 1.5 1.5v3.955c0 .828-.671 1.5-1.5 1.5z" fill="#33363a"/></g></g><g><g><path d="m96.371 51.641-9.433-20.995-9.018 4.053-10.42-10.42-10.42 10.42-9.018-4.053-9.433 20.995 20.991 9.435.469-1.045 7.411 7.412 7.41-7.41.469 1.043z" fill="#ffecd2"/></g><g><path d="m77.92 52.281-10.42-10.42-10.42 10.42-9.018-4.052-2.86 6.365 14.418 6.482.469-1.045 7.411 7.412 7.41-7.41.469 1.043 14.419-6.482-2.86-6.365z" fill="#f4d3a2"/></g><g><path d="m96.372 53.141c-.573 0-1.119-.329-1.369-.885l-8.819-19.626-7.649 3.438c-.568.257-1.235.132-1.675-.308l-9.36-9.36-9.359 9.359c-.44.439-1.108.563-1.675.308l-7.649-3.438-8.819 19.626c-.34.755-1.226 1.094-1.983.753-.756-.34-1.093-1.228-.753-1.983l9.434-20.994c.163-.362.463-.646.835-.787.373-.142.785-.13 1.147.034l8.074 3.629 9.688-9.688c.586-.586 1.535-.586 2.121 0l9.688 9.688 8.074-3.629c.363-.164.775-.176 1.147-.034s.672.425.835.787l9.434 20.994c.339.756.002 1.644-.753 1.983-.2.091-.408.133-.614.133z" fill="#33363a"/></g></g><g><g><g><path d="m51.783 38.82-21.659-6.183-1.689 8.787-13.859.949 2.57 13.65-8.078 3.848 11.44 19.402 18.807-8.957-.567-.961 9.854-.675-1.827-9.705 1.077.304z" fill="#ffecd2"/></g><g><path d="m42.295 52.139-13.859.949 2.572 13.652-8.079 3.846 3.469 5.883 12.917-6.153-.567-.961 9.854-.675-1.827-9.705 1.077.304 2.7-14.05-6.568-1.877z" fill="#f4d3a2"/></g><g><path d="m20.509 80.773c-.514 0-1.014-.264-1.293-.738l-11.44-19.402c-.214-.362-.266-.798-.143-1.2s.41-.734.79-.916l7.035-3.351-2.356-12.516c-.079-.421.025-.855.288-1.194.262-.34.657-.55 1.084-.579l12.706-.871 1.471-7.652c.08-.413.329-.774.688-.994.358-.223.792-.282 1.197-.165l21.659 6.184c.797.228 1.258 1.058 1.031 1.854s-1.058 1.257-1.854 1.03l-20.084-5.733-1.38 7.178c-.129.669-.691 1.167-1.371 1.213l-12.174.834 2.258 11.992c.126.669-.214 1.339-.829 1.632l-6.599 3.143 10.607 17.99c.421.714.184 1.633-.53 2.054-.24.141-.502.207-.761.207z" fill="#33363a"/></g></g><g><g><path d="m83.217 38.82 21.659-6.183 1.688 8.787 13.86.949-2.571 13.65 8.079 3.848-11.441 19.402-18.807-8.957.568-.961-9.855-.675 1.827-9.705-1.076.304z" fill="#ffecd2"/></g><g><path d="m92.704 52.139 13.86.949-2.572 13.652 8.079 3.846-3.469 5.883-12.918-6.153.568-.961-9.855-.675 1.827-9.705-1.076.304-2.701-14.05 6.569-1.877z" fill="#f4d3a2"/></g><g><path d="m114.49 80.773c-.259 0-.521-.066-.76-.208-.714-.421-.951-1.34-.53-2.054l10.608-17.991-6.6-3.143c-.615-.293-.955-.963-.829-1.632l2.259-11.992-12.175-.834c-.679-.046-1.242-.544-1.371-1.213l-1.379-7.178-20.083 5.733c-.792.227-1.626-.234-1.854-1.03-.228-.797.234-1.627 1.031-1.854l21.659-6.184c.406-.115.84-.057 1.197.165.359.22.608.581.688.994l1.47 7.652 12.707.871c.427.029.822.239 1.084.579.262.339.367.773.288 1.194l-2.357 12.516 7.036 3.351c.38.182.667.514.79.916s.071.838-.143 1.2l-11.44 19.402c-.283.477-.783.74-1.296.74z" fill="#33363a"/></g></g></g></g></svg>